# xmcd
#
# Track frame offsets: 
#        150
#        17559
#        34092
#        61026
#        75959
#        99426
#        109026
#        132492
#        151160
#        167160
#        185293
#        199143
#        220374
#        236931
#        253489
#        265260
#        281818
#        298375
#        318555
#        336147
#
# Disc length: 4724 seconds
#
# Revision: 2
# Processed by: cddbd v1.5.2PL0 Copyright (c) Steve Scherf et al.
# Submitted via: ExactAudioCopy v0.95b4
#
DISCID=2c127214
DTITLE=Various Artist - Ministry Of Sound - Cream 15 Years [CD3)
DYEAR=2008
DGENRE=Electronic
TTITLE0=Hybrid - Finished Symphony
TTITLE1=Olive - You're Not Alone
TTITLE2=Way Out West - Mind Circus (Gabriel and Dresden Remix)
TTITLE3=iiO - Rapture (Riva Remix)
TTITLE4=Lustral - Everytime (Nalin and Kane Remix)
TTITLE5=Three Drives - Greece 2000
TTITLE6=Agnelli and Nelson - El Nino
TTITLE7=Chicane - Salt Water
TTITLE8=Sasha - Xpander
TTITLE9=Nalin and Kane - Beachball (Extended Vocal Mix)
TTITLE10=Storm - Storm
TTITLE11=Cygnus X - The Orange Theme (Moonmans Mix)
TTITLE12=Push - Universal Nation (Ferry Corsten Remix)
TTITLE13=Art Of Trance - Madagascar
TTITLE14=Mauro Picotto - Lizard (Claxixx Mix)
TTITLE15=Veracocha - Carte Blanche
TTITLE16=Pulser - Cloudwalking
TTITLE17=Dogzilla - Without You
TTITLE18=Ambassador - The Fade
TTITLE19=OceanLab - Beautiful Together (Signum Remix)
EXTD=CREAMCD4 (p) 2008
EXTT0=
EXTT1=
EXTT2=
EXTT3=
EXTT4=
EXTT5=
EXTT6=
EXTT7=
EXTT8=
EXTT9=
EXTT10=
EXTT11=
EXTT12=
EXTT13=
EXTT14=
EXTT15=
EXTT16=
EXTT17=
EXTT18=
EXTT19=
PLAYORDER=
